<svg width="46" height="46" viewBox="0 0 46 46" fill="none" xmlns="http://www.w3.org/2000/svg">
<g style="mix-blend-mode:multiply">
<rect x="3" y="3" width="40" height="40" rx="20" fill="#F2F4F7"/>
<rect x="3" y="3" width="40" height="40" rx="20" stroke="#F9FAFB" stroke-width="6"/>
<path d="M22.9998 30.5L22.9165 30.3749C22.3376 29.5066 22.0482 29.0725 21.6658 28.7582C21.3272 28.4799 20.9371 28.2712 20.5178 28.1438C20.0442 28 19.5224 28 18.4789 28H17.3332C16.3997 28 15.933 28 15.5765 27.8183C15.2629 27.6586 15.0079 27.4036 14.8482 27.09C14.6665 26.7335 14.6665 26.2668 14.6665 25.3333V18.1667C14.6665 17.2332 14.6665 16.7665 14.8482 16.41C15.0079 16.0964 15.2629 15.8414 15.5765 15.6817C15.933 15.5 16.3997 15.5 17.3332 15.5H17.6665C19.5333 15.5 20.4668 15.5 21.1798 15.8633C21.807 16.1829 22.3169 16.6928 22.6365 17.32C22.9998 18.0331 22.9998 18.9665 22.9998 20.8333M22.9998 30.5V20.8333M22.9998 30.5L23.0832 30.3749C23.6621 29.5066 23.9515 29.0725 24.3339 28.7582C24.6725 28.4799 25.0625 28.2712 25.4818 28.1438C25.9555 28 26.4772 28 27.5208 28H28.6665C29.5999 28 30.0666 28 30.4232 27.8183C30.7368 27.6586 30.9917 27.4036 31.1515 27.09C31.3332 26.7335 31.3332 26.2668 31.3332 25.3333V18.1667C31.3332 17.2332 31.3332 16.7665 31.1515 16.41C30.9917 16.0964 30.7368 15.8414 30.4232 15.6817C30.0666 15.5 29.5999 15.5 28.6665 15.5H28.3332C26.4663 15.5 25.5329 15.5 24.8199 15.8633C24.1927 16.1829 23.6827 16.6928 23.3631 17.32C22.9998 18.0331 22.9998 18.9665 22.9998 20.8333" stroke="#475467" stroke-width="1.66667" stroke-linecap="round" stroke-linejoin="round"/>
</g>
</svg>
