<svg width="46" height="46" viewBox="0 0 46 46" fill="none" xmlns="http://www.w3.org/2000/svg">
<g style="mix-blend-mode:multiply">
<rect x="3" y="3" width="40" height="40" rx="20" fill="#DDE7FC"/>
<rect x="3" y="3" width="40" height="40" rx="20" stroke="#F0F5FE" stroke-width="6"/>
<g clip-path="url(#clip0_8115_1817)">
<path d="M24.2744 19.9602C23.7974 20.3003 23.2136 20.5003 22.5832 20.5003C20.9723 20.5003 19.6665 19.1945 19.6665 17.5837C19.6665 15.9728 20.9723 14.667 22.5832 14.667C23.6273 14.667 24.5433 15.2157 25.0586 16.0404M17.9998 29.7396H20.1751C20.4587 29.7396 20.7406 29.7734 21.0155 29.8409L23.3139 30.3994C23.8126 30.5209 24.3322 30.5327 24.8361 30.4348L27.3773 29.9404C28.0486 29.8096 28.6662 29.4882 29.1501 29.0174L30.9481 27.2684C31.4615 26.7698 31.4615 25.9607 30.9481 25.4612C30.4858 25.0115 29.7538 24.9609 29.2308 25.3423L27.1353 26.871C26.8352 27.0904 26.4701 27.2085 26.0945 27.2085H24.0711L25.3591 27.2085C26.085 27.2085 26.6731 26.6364 26.6731 25.9303V25.6746C26.6731 25.0882 26.2628 24.577 25.6782 24.4352L23.6903 23.9518C23.3668 23.8733 23.0355 23.8337 22.7025 23.8337C21.8984 23.8337 20.4431 24.4993 20.4431 24.4993L17.9998 25.5211M29.6665 18.417C29.6665 20.0278 28.3607 21.3337 26.7498 21.3337C25.139 21.3337 23.8332 20.0278 23.8332 18.417C23.8332 16.8062 25.139 15.5003 26.7498 15.5003C28.3607 15.5003 29.6665 16.8062 29.6665 18.417ZM14.6665 25.167L14.6665 30.0003C14.6665 30.467 14.6665 30.7004 14.7573 30.8787C14.8372 31.0355 14.9647 31.1629 15.1215 31.2428C15.2998 31.3337 15.5331 31.3337 15.9998 31.3337H16.6665C17.1332 31.3337 17.3666 31.3337 17.5448 31.2428C17.7016 31.1629 17.8291 31.0355 17.909 30.8787C17.9998 30.7004 17.9998 30.467 17.9998 30.0003V25.167C17.9998 24.7003 17.9998 24.4669 17.909 24.2887C17.8291 24.1319 17.7016 24.0044 17.5448 23.9245C17.3666 23.8337 17.1332 23.8337 16.6665 23.8337L15.9998 23.8337C15.5331 23.8337 15.2998 23.8337 15.1215 23.9245C14.9647 24.0044 14.8372 24.1319 14.7573 24.2887C14.6665 24.4669 14.6665 24.7003 14.6665 25.167Z" stroke="#335ADD" stroke-width="1.66667" stroke-linecap="round" stroke-linejoin="round"/>
</g>
</g>
<defs>
<clipPath id="clip0_8115_1817">
<rect width="20" height="20" fill="white" transform="translate(13 13)"/>
</clipPath>
</defs>
</svg>
