<svg width="46" height="46" viewBox="0 0 46 46" fill="none" xmlns="http://www.w3.org/2000/svg">
<g style="mix-blend-mode:multiply">
<rect x="3" y="3" width="40" height="40" rx="20" fill="#F2F4F7"/>
<rect x="3" y="3" width="40" height="40" rx="20" stroke="#F9FAFB" stroke-width="6"/>
<path d="M20.4998 22.3518L23.648 25.5M19.6455 30.479C18.5065 31.6181 16.3332 31.3333 14.6665 31.3333C15.5208 29.6666 14.3817 27.4933 15.5208 26.3543C16.6598 25.2152 18.5065 25.2152 19.6455 26.3543C20.7846 27.4933 20.7846 29.34 19.6455 30.479ZM22.9345 26.2705L30.5488 18.0471C31.2194 17.3228 31.1978 16.198 30.4998 15.5C29.8018 14.802 28.677 14.7804 27.9527 15.451L19.7293 23.0653C19.3043 23.4587 19.0919 23.6555 18.9679 23.8653C18.6708 24.3684 18.6588 24.9904 18.9364 25.5046C19.0522 25.719 19.2569 25.9238 19.6665 26.3333C20.076 26.7428 20.2807 26.9476 20.4952 27.0633C21.0093 27.3409 21.6313 27.329 22.1345 27.0318C22.3443 26.9079 22.541 26.6954 22.9345 26.2705Z" stroke="#475467" stroke-width="1.66667" stroke-linecap="round" stroke-linejoin="round"/>
</g>
</svg>
