<svg width="17" height="16" viewBox="0 0 17 16" fill="none" xmlns="http://www.w3.org/2000/svg">
<g id="Thumbs Up Icon" clip-path="url(#clip0_8123_3133)">
<path id="Icon" d="M12.3141 14.6668L12.3141 7.3335M15.6475 8.66683L15.6475 13.3335C15.6475 14.0699 15.0505 14.6668 14.3141 14.6668L5.3633 14.6668C4.37616 14.6668 3.53666 13.9466 3.38656 12.9709L2.66861 8.30428C2.48222 7.09276 3.41958 6.00016 4.64535 6.00016L6.98079 6.00016C7.34898 6.00016 7.64746 5.70169 7.64746 5.3335L7.64746 2.97739C7.64746 2.06949 8.38346 1.3335 9.29135 1.3335C9.5079 1.3335 9.70414 1.46103 9.79209 1.65891L12.1382 6.93759C12.2452 7.17834 12.4839 7.3335 12.7474 7.3335L14.3141 7.3335C15.0505 7.3335 15.6475 7.93045 15.6475 8.66683Z" stroke="#475467" stroke-linecap="round" stroke-linejoin="round"/>
</g>
<defs>
<clipPath id="clip0_8123_3133">
<rect width="16" height="16" fill="white" transform="matrix(-1 8.74228e-08 8.74228e-08 1 16.9805 0)"/>
</clipPath>
</defs>
</svg>
