<svg width="16" height="16" viewBox="0 0 16 16" fill="none" xmlns="http://www.w3.org/2000/svg">
<g id="Component 3">
<path id="Vector" d="M7.96769 0C8.79841 0 9.57056 0.207999 10.2841 0.624C10.9764 1.02933 11.5302 1.57867 11.9456 2.272C12.3609 2.98667 12.5686 3.76 12.5686 4.592C12.5686 5.264 12.4248 5.904 12.1373 6.512C11.871 7.09867 11.4903 7.61067 10.995 8.048C10.4998 8.48533 9.94332 8.8 9.3256 8.992C10.3161 9.184 11.2107 9.57333 12.0095 10.16C12.8082 10.7467 13.4366 11.4613 13.8946 12.304C14.3632 13.168 14.5975 14.08 14.5975 15.04V15.488C14.5975 15.6267 14.5496 15.7467 14.4537 15.848C14.3579 15.9493 14.2354 16 14.0863 16H1.8491C1.71065 16 1.59083 15.9493 1.48966 15.848C1.38848 15.7467 1.33789 15.6267 1.33789 15.488V15.04C1.33789 14.08 1.5722 13.168 2.04081 12.304C2.49877 11.4613 3.12714 10.7467 3.92591 10.16C4.72468 9.57333 5.6193 9.184 6.60978 8.992C5.99206 8.8 5.43825 8.488 4.94834 8.056C4.45842 7.624 4.07501 7.10667 3.79811 6.504C3.5212 5.90133 3.38274 5.264 3.38274 4.592C3.38274 3.76 3.59043 2.98667 4.00579 2.272C4.4105 1.57867 4.95899 1.02933 5.65125 0.624C6.36482 0.207999 7.13697 0 7.96769 0ZM7.96769 9.872C6.96656 9.872 6.02934 10.112 5.15602 10.592C4.30399 11.0613 3.6277 11.6853 3.12714 12.464C2.61592 13.2747 2.36032 14.1333 2.36032 15.04V14.976H13.5751V14.88C13.5431 14.0053 13.2795 13.1893 12.7843 12.432C12.289 11.6747 11.642 11.072 10.8433 10.624C10.0019 10.1547 9.10195 9.904 8.14342 9.872H7.96769ZM7.96769 1.024C7.32867 1.024 6.73492 1.184 6.18643 1.504C5.63794 1.824 5.20394 2.25867 4.88443 2.808C4.56493 3.35733 4.40517 3.95467 4.40517 4.6C4.40517 5.24533 4.56493 5.84267 4.88443 6.392C5.20394 6.94133 5.63528 7.376 6.17844 7.696C6.72161 8.016 7.31802 8.176 7.96769 8.176C8.61736 8.176 9.21644 8.016 9.76493 7.696C10.3134 7.376 10.7474 6.94133 11.0669 6.392C11.3864 5.84267 11.5462 5.24267 11.5462 4.592C11.5462 3.94133 11.3864 3.344 11.0669 2.8C10.7474 2.256 10.3134 1.824 9.76493 1.504C9.21644 1.184 8.61736 1.024 7.96769 1.024Z" fill="#475467"/>
</g>
</svg>
