<svg width="21" height="21" viewBox="0 0 21 21" fill="none" xmlns="http://www.w3.org/2000/svg">
<g id="shopping-cart-03" clip-path="url(#clip0_8127_3986)">
<path id="Icon" d="M4.66711 11.7168H15.6135C16.4576 11.7168 16.8796 11.7168 17.2155 11.5594C17.5115 11.4208 17.7601 11.1983 17.9306 10.9194C18.1241 10.6029 18.1707 10.1835 18.2639 9.34462L18.7514 4.95708C18.7799 4.70087 18.7941 4.57276 18.7529 4.4736C18.7167 4.38651 18.6521 4.31427 18.5695 4.26869C18.4755 4.2168 18.3466 4.2168 18.0888 4.2168H4.25044M2.16699 1.7168H3.20736C3.42788 1.7168 3.53814 1.7168 3.6244 1.75873C3.70034 1.79565 3.76327 1.85477 3.80486 1.92827C3.85209 2.01174 3.85897 2.12179 3.87273 2.34188L4.62792 14.425C4.64168 14.6451 4.64856 14.7552 4.69579 14.8387C4.73738 14.9122 4.80031 14.9713 4.87625 15.0082C4.96251 15.0501 5.07277 15.0501 5.29329 15.0501H16.3337M6.75033 17.9668H6.75866M14.2503 17.9668H14.2587M7.16699 17.9668C7.16699 18.1969 6.98044 18.3835 6.75033 18.3835C6.52021 18.3835 6.33366 18.1969 6.33366 17.9668C6.33366 17.7367 6.52021 17.5501 6.75033 17.5501C6.98044 17.5501 7.16699 17.7367 7.16699 17.9668ZM14.667 17.9668C14.667 18.1969 14.4804 18.3835 14.2503 18.3835C14.0202 18.3835 13.8337 18.1969 13.8337 17.9668C13.8337 17.7367 14.0202 17.5501 14.2503 17.5501C14.4804 17.5501 14.667 17.7367 14.667 17.9668Z" stroke="white" stroke-width="1.66667" stroke-linecap="round" stroke-linejoin="round"/>
</g>
<defs>
<clipPath id="clip0_8127_3986">
<rect width="20" height="20" fill="white" transform="translate(0.5 0.0500488)"/>
</clipPath>
</defs>
</svg>
