<svg width="54" height="72" viewBox="0 0 54 72" fill="none" xmlns="http://www.w3.org/2000/svg">
<path d="M4.7627 55.1768H6.46915V63.0607H11.0558V64.7153H4.7627V55.1768Z" fill="#2B3990"/>
<path d="M12.2949 61.8492C12.2949 61.2755 12.4299 60.7634 12.6986 60.3115C12.9674 59.8595 13.3434 59.504 13.8254 59.2425C14.3075 58.9822 14.8618 58.8521 15.4873 58.8521C16.1127 58.8521 16.6731 58.9822 17.1419 59.2425C17.6107 59.5028 17.971 59.8595 18.2229 60.3115C18.4748 60.7634 18.6013 61.2755 18.6013 61.8492C18.6013 62.4228 18.4736 62.9242 18.2169 63.3809C17.9602 63.8364 17.5999 64.198 17.1359 64.4619C16.6707 64.727 16.1127 64.8596 15.462 64.8596C14.8534 64.8596 14.3111 64.7403 13.8327 64.5017C13.3554 64.263 12.9794 63.9172 12.7059 63.4653C12.4323 63.0133 12.2949 62.4746 12.2949 61.8492ZM13.9628 61.8624C13.9628 62.1661 14.0279 62.4445 14.158 62.6964C14.2882 62.9483 14.4641 63.1483 14.6859 63.2953C14.9076 63.4436 15.1571 63.5171 15.4355 63.5171C15.8874 63.5171 16.2501 63.3592 16.5237 63.0411C16.7973 62.7241 16.9346 62.3312 16.9346 61.8612C16.9346 61.3912 16.7985 60.9863 16.5237 60.6694C16.2501 60.3524 15.8874 60.1934 15.4355 60.1934C15.1571 60.1934 14.9076 60.2669 14.6859 60.4151C14.4641 60.5633 14.2882 60.7622 14.158 61.014C14.0279 61.2659 13.9628 61.5479 13.9628 61.8612V61.8624Z" fill="#2B3990"/>
<path d="M24.8039 64.2077C24.552 64.4078 24.2435 64.5657 23.8784 64.6838C23.5132 64.8007 23.148 64.8597 22.7841 64.8597C22.1586 64.8597 21.6091 64.7428 21.1355 64.5078C20.6619 64.2728 20.2955 63.9342 20.034 63.4919C19.7737 63.0484 19.6436 62.5194 19.6436 61.9023C19.6436 61.2853 19.7821 60.7575 20.0605 60.3188C20.3389 59.8802 20.7053 59.5439 21.162 59.3089C21.6187 59.0739 22.102 58.957 22.6154 58.957C23.1288 58.957 23.5409 59.0245 23.9049 59.1595C24.27 59.2945 24.5821 59.4704 24.8437 59.6873L24.0362 60.7563C23.9061 60.6526 23.7325 60.5502 23.5156 60.4502C23.2987 60.3502 23.0504 60.3007 22.7733 60.3007C22.4961 60.3007 22.2454 60.3706 22.0237 60.5092C21.8019 60.6478 21.626 60.8394 21.4958 61.0829C21.3657 61.3263 21.3006 61.5999 21.3006 61.9036C21.3006 62.2072 21.3681 62.47 21.5031 62.7182C21.638 62.9653 21.8284 63.1617 22.0767 63.3051C22.3237 63.4485 22.6082 63.5196 22.9299 63.5196C23.1384 63.5196 23.3312 63.4895 23.5096 63.428C23.6879 63.3678 23.8422 63.281 23.9724 63.1677L24.8063 64.2102L24.8039 64.2077Z" fill="#2B3990"/>
<path d="M28.6095 64.8587C28.0877 64.8587 27.6153 64.7526 27.1887 64.5393C26.7633 64.326 26.4258 64.003 26.1788 63.568C25.9317 63.1341 25.8076 62.5822 25.8076 61.9134C25.8076 61.2795 25.9354 60.7335 26.1921 60.278C26.4487 59.8225 26.7898 59.4682 27.2152 59.2163C27.6406 58.9644 28.0973 58.8379 28.583 58.8379C29.1301 58.8379 29.558 58.9355 29.8665 59.1307C30.175 59.326 30.4208 59.5501 30.6028 59.802L30.5245 60.0237L30.6811 59.0982H32.2189V64.7141H30.5642V63.4234L30.7076 63.8018C30.6811 63.8199 30.6209 63.8849 30.5257 63.997C30.4305 64.1103 30.2955 64.2332 30.122 64.3682C29.9484 64.5032 29.7351 64.6177 29.4832 64.7141C29.2314 64.8093 28.9397 64.8575 28.6095 64.8575V64.8587ZM29.0783 63.5162C29.4435 63.5162 29.752 63.4294 30.0039 63.2559C30.2557 63.0823 30.4425 62.8341 30.5642 62.5135V61.2108C30.4594 60.9071 30.269 60.6588 29.9906 60.4684C29.7122 60.278 29.3916 60.1816 29.0265 60.1816C28.7481 60.1816 28.4926 60.2527 28.2576 60.3961C28.0226 60.5395 27.8358 60.7348 27.6972 60.983C27.5587 61.2301 27.4888 61.5157 27.4888 61.8362C27.4888 62.1568 27.5599 62.434 27.7033 62.6895C27.8467 62.9461 28.0395 63.1474 28.2829 63.2956C28.5264 63.4439 28.7915 63.5174 29.0783 63.5174V63.5162Z" fill="#2B3990"/>
<path d="M34.1465 54.4858H35.8011V64.7149H34.1465V54.4858Z" fill="#2B3990"/>
<path d="M37.7051 57.1057C37.7051 56.8623 37.8027 56.6611 37.9979 56.4996C38.1932 56.3393 38.4041 56.2585 38.6294 56.2585C38.8548 56.2585 39.0608 56.3393 39.2488 56.4996C39.4356 56.6599 39.5284 56.8623 39.5284 57.1057C39.5284 57.3492 39.4344 57.5613 39.2488 57.7179C39.062 57.8746 38.856 57.9529 38.6294 57.9529C38.4028 57.9529 38.1932 57.8746 37.9979 57.7179C37.8027 57.5613 37.7051 57.3576 37.7051 57.1057ZM37.7436 59.099H39.3983V64.7149H37.7436V59.099Z" fill="#2B3990"/>
<path d="M43.6984 64.8587C43.1766 64.8587 42.7042 64.7526 42.2776 64.5393C41.8521 64.326 41.5147 64.003 41.2677 63.568C41.0206 63.1341 40.8965 62.5822 40.8965 61.9134C40.8965 61.2795 41.0242 60.7335 41.2809 60.278C41.5376 59.8225 41.8787 59.4682 42.3041 59.2163C42.7295 58.9644 43.1862 58.8379 43.6719 58.8379C44.219 58.8379 44.6468 58.9355 44.9553 59.1307C45.2638 59.326 45.5097 59.5501 45.6917 59.802L45.6133 60.0237L45.77 59.0982H47.3077V64.7141H45.6531V63.4234L45.7965 63.8018C45.77 63.8199 45.7097 63.8849 45.6145 63.997C45.5193 64.1103 45.3844 64.2332 45.2108 64.3682C45.0373 64.5032 44.824 64.6177 44.5721 64.7141C44.3202 64.8093 44.0286 64.8575 43.6984 64.8575V64.8587ZM44.1672 63.5162C44.5323 63.5162 44.8408 63.4294 45.0927 63.2559C45.3446 63.0823 45.5314 62.8341 45.6531 62.5135V61.2108C45.5483 60.9071 45.3578 60.6588 45.0795 60.4684C44.8011 60.278 44.4805 60.1816 44.1154 60.1816C43.837 60.1816 43.5815 60.2527 43.3465 60.3961C43.1115 60.5395 42.9247 60.7348 42.7861 60.983C42.6475 61.2301 42.5776 61.5157 42.5776 61.8362C42.5776 62.1568 42.6487 62.434 42.7921 62.6895C42.9356 62.9461 43.1284 63.1474 43.3718 63.2956C43.6152 63.4439 43.8804 63.5174 44.1672 63.5174V63.5162Z" fill="#2B3990"/>
<path fill-rule="evenodd" clip-rule="evenodd" d="M19.7609 26.7837C16.6782 27.2826 13.7799 25.2026 13.2834 22.1343C12.7869 19.0673 14.8814 16.1786 17.9629 15.6797C8.19658 16.0641 4.1534 26.1233 8.84856 32.8418C13.0942 32.1802 16.9675 30.0315 19.7609 26.7825V26.7837Z" fill="#8DC63F"/>
<path fill-rule="evenodd" clip-rule="evenodd" d="M8.84914 32.8429C5.08193 26.2075 8.89614 17.1486 17.9635 15.6808C22.5225 14.9421 25.1086 19.207 24.5904 23.1935C26.8886 15.5892 22.978 6.20613 14.7747 7.20879C7.74405 9.23219 3.17664 16.2147 4.3685 23.5792C4.84814 26.545 6.56664 29.7265 8.84794 32.8441L8.84914 32.8429Z" fill="url(#paint0_linear_7919_5013)"/>
<path d="M47.3215 47.1974C46.6225 46.5623 45.621 46.2454 44.3147 46.2454H27.9335V38.7134C26.5078 40.8452 25.0376 43.1543 23.871 45.632C23.1479 47.1685 22.1079 50.097 23.0949 52.7326C23.6011 52.8338 24.1699 52.8856 24.805 52.8856H44.3147C45.6391 52.8856 46.6454 52.5819 47.3347 51.9745C48.0241 51.3672 48.3687 50.573 48.3687 49.5932C48.3687 48.6135 48.0192 47.8337 47.3215 47.1986V47.1974Z" fill="url(#paint1_linear_7919_5013)"/>
<path d="M22.3307 53.3145C21.2485 50.7488 21.8487 47.7565 23.0345 45.2378C24.2216 42.7179 25.7195 40.3559 27.2705 38.042C32.003 30.9836 35.7293 20.9871 28.3503 12.7549C27.8695 12.1138 27.3404 11.5149 26.7668 10.9665C24.7735 9.06487 22.2861 7.75008 19.5686 7.1897C27.0789 11.2811 30.9112 27.7647 15.5459 43.0529C16.4594 43.9327 17.3391 44.7654 18.1839 45.5391C19.0552 46.3369 19.8771 47.0889 20.6146 47.7637C20.3351 49.2581 20.1916 50.7753 20.4086 52.2733C20.7026 54.31 21.7571 56.3285 23.5503 57.3396C25.3435 58.3507 27.9008 58.0699 29.1204 56.4129C26.6174 57.6325 23.4129 55.8826 22.3319 53.3169L22.3307 53.3145Z" fill="url(#paint2_linear_7919_5013)"/>
<path d="M6.16053 67.5315H6.33769V68.1979C6.17258 68.3449 5.93758 68.4196 5.69536 68.4196C5.1639 68.4196 4.77344 68.0424 4.77344 67.5302C4.77344 67.0181 5.16269 66.6409 5.69777 66.6409C5.96289 66.6409 6.19187 66.7252 6.34733 66.8927L6.23284 67.0096C6.08582 66.865 5.91107 66.8048 5.7062 66.8048C5.27477 66.8048 4.95662 67.1121 4.95662 67.529C4.95662 67.946 5.27356 68.2533 5.70379 68.2533C5.8713 68.2533 6.02556 68.216 6.16053 68.1183V67.529V67.5315Z" fill="#4BB749"/>
<path d="M8.84583 68.2461V68.4064H7.60938V66.6589H8.80847V66.8192H7.79496V67.4411H8.69881V67.5989H7.79496V68.2485H8.84583V68.2461Z" fill="#4BB749"/>
<path d="M9.86523 67.5317C9.86523 67.0219 10.2545 66.6423 10.7847 66.6423C11.315 66.6423 11.7006 67.0195 11.7006 67.5317C11.7006 68.0439 11.309 68.4211 10.7847 68.4211C10.2605 68.4211 9.86523 68.0415 9.86523 67.5317ZM11.5163 67.5317C11.5163 67.1147 11.2041 66.8074 10.7847 66.8074C10.3654 66.8074 10.0484 67.1147 10.0484 67.5317C10.0484 67.9487 10.3629 68.256 10.7847 68.256C11.2065 68.256 11.5163 67.9487 11.5163 67.5317Z" fill="#4BB749"/>
<path d="M12.6973 68.1933L12.7696 68.0511C12.8949 68.174 13.1166 68.2632 13.3468 68.2632C13.6734 68.2632 13.8168 68.1258 13.8168 67.9535C13.8168 67.4739 12.7407 67.7691 12.7407 67.122C12.7407 66.8653 12.9407 66.6423 13.3854 66.6423C13.583 66.6423 13.7879 66.7002 13.9277 66.7966L13.865 66.9436C13.7156 66.846 13.5409 66.799 13.3854 66.799C13.066 66.799 12.9238 66.9412 12.9238 67.1159C12.9238 67.5956 14 67.3064 14 67.9427C14 68.1994 13.7951 68.4199 13.348 68.4199C13.0853 68.4199 12.8286 68.3271 12.6985 68.1921L12.6973 68.1933Z" fill="#4BB749"/>
<path d="M16.5184 67.2567C16.5184 67.629 16.2485 67.8532 15.8038 67.8532H15.3338V68.4051H15.1494V66.6577H15.8038C16.2485 66.6577 16.5184 66.8831 16.5184 67.2567ZM16.334 67.2567C16.334 66.9771 16.1497 66.8168 15.8002 66.8168H15.3362V67.6905H15.8002C16.1497 67.6905 16.334 67.5302 16.334 67.2555V67.2567Z" fill="#4BB749"/>
<path d="M18.677 67.9385H17.7033L17.4936 68.4061H17.3008L18.0998 66.6587H18.2818L19.0807 68.4061H18.8855L18.6758 67.9385H18.677ZM18.6095 67.7891L18.1902 66.8503L17.7708 67.7891H18.6095Z" fill="#4BB749"/>
<path d="M20.3734 66.8168H19.7588V66.6565H21.1724V66.8168H20.5578V68.4051H20.3734V66.8168Z" fill="#4BB749"/>
<path d="M22.2168 66.6577H22.4012V68.4051H22.2168V66.6577Z" fill="#4BB749"/>
<path d="M24.8167 67.9385H23.8429L23.6332 68.4061H23.4404L24.2394 66.6587H24.4214L25.2204 68.4061H25.0252L24.8155 67.9385H24.8167ZM24.7492 67.7891L24.3298 66.8503L23.9104 67.7891H24.7492Z" fill="#4BB749"/>
<path d="M26.261 66.6577H26.4454V68.2461H27.4239V68.4063H26.2598V66.6589L26.261 66.6577Z" fill="#4BB749"/>
<path d="M29.7168 68.1933L29.7891 68.0511C29.9144 68.174 30.1362 68.2632 30.3664 68.2632C30.6929 68.2632 30.8364 68.1258 30.8364 67.9535C30.8364 67.4739 29.7602 67.7691 29.7602 67.122C29.7602 66.8653 29.9602 66.6423 30.4049 66.6423C30.6026 66.6423 30.8074 66.7002 30.9472 66.7966L30.8846 66.9436C30.7351 66.846 30.5604 66.799 30.4049 66.799C30.0856 66.799 29.9434 66.9412 29.9434 67.1159C29.9434 67.5956 31.0195 67.3064 31.0195 67.9427C31.0195 68.1994 30.8147 68.4199 30.3676 68.4199C30.1048 68.4199 29.8482 68.3271 29.718 68.1921L29.7168 68.1933Z" fill="#4BB749"/>
<path d="M33.4054 68.2458V68.4061H32.1689V66.6587H33.368V66.819H32.3545V67.4408H33.2584V67.5987H32.3545V68.2482H33.4054V68.2458Z" fill="#4BB749"/>
<path d="M35.7841 68.4051L35.384 67.8436C35.3394 67.8484 35.2936 67.8508 35.2442 67.8508H34.7742V68.4051H34.5898V66.6577H35.2442C35.6889 66.6577 35.9589 66.8831 35.9589 67.2567C35.9589 67.5314 35.8142 67.7243 35.5588 67.8062L35.9854 68.4051H35.7829H35.7841ZM35.7745 67.2567C35.7745 66.9771 35.5901 66.8168 35.2406 66.8168H34.7766V67.6929H35.2406C35.5901 67.6929 35.7745 67.5302 35.7745 67.2555V67.2567Z" fill="#4BB749"/>
<path d="M38.5985 66.658L37.8248 68.4054H37.6428L36.8691 66.658H37.0692L37.738 68.1764L38.4117 66.658H38.5985Z" fill="#4BB749"/>
<path d="M39.6016 66.6577H39.7859V68.4051H39.6016V66.6577Z" fill="#4BB749"/>
<path d="M40.9502 67.5317C40.9502 67.0195 41.3395 66.6423 41.8673 66.6423C42.1216 66.6423 42.3518 66.7267 42.506 66.8966L42.3891 67.0135C42.2469 66.8689 42.0722 66.8062 41.8721 66.8062C41.4503 66.8062 41.1334 67.1159 41.1334 67.5305C41.1334 67.9451 41.4503 68.2548 41.8721 68.2548C42.0722 68.2548 42.2469 68.1921 42.3891 68.0451L42.506 68.162C42.3505 68.3319 42.1216 68.4187 41.8637 68.4187C41.3395 68.4187 40.9502 68.0415 40.9502 67.5293V67.5317Z" fill="#4BB749"/>
<path d="M44.8859 68.2458V68.4061H43.6494V66.6587H44.8485V66.819H43.835V67.4408H44.7388V67.5987H43.835V68.2482H44.8859V68.2458Z" fill="#4BB749"/>
<path d="M45.9023 68.1933L45.9747 68.0511C46.1 68.174 46.3217 68.2632 46.5519 68.2632C46.8785 68.2632 47.0219 68.1258 47.0219 67.9535C47.0219 67.4739 45.9457 67.7691 45.9457 67.122C45.9457 66.8653 46.1458 66.6423 46.5905 66.6423C46.7881 66.6423 46.993 66.7002 47.1328 66.7966L47.0701 66.9436C46.9207 66.846 46.7459 66.799 46.5905 66.799C46.2711 66.799 46.1289 66.9412 46.1289 67.1159C46.1289 67.5956 47.2051 67.3064 47.2051 67.9427C47.2051 68.1994 47.0002 68.4199 46.5531 68.4199C46.2904 68.4199 46.0337 68.3271 45.9036 68.1921L45.9023 68.1933Z" fill="#4BB749"/>
<defs>
<linearGradient id="paint0_linear_7919_5013" x1="4.1805" y1="19.9879" x2="25.2412" y2="19.9879" gradientUnits="userSpaceOnUse">
<stop stop-color="#C7C5C4"/>
<stop offset="0.5" stop-color="#AFAFB7"/>
<stop offset="1" stop-color="#9396A8"/>
</linearGradient>
<linearGradient id="paint1_linear_7919_5013" x1="22.69" y1="45.7983" x2="48.3687" y2="45.7983" gradientUnits="userSpaceOnUse">
<stop stop-color="#2A3C90"/>
<stop offset="1" stop-color="#292562"/>
</linearGradient>
<linearGradient id="paint2_linear_7919_5013" x1="15.5459" y1="32.5575" x2="32.5224" y2="32.5575" gradientUnits="userSpaceOnUse">
<stop stop-color="#2A3C90"/>
<stop offset="1" stop-color="#292562"/>
</linearGradient>
</defs>
</svg>
