<svg width="54" height="72" viewBox="0 0 54 72" fill="none" xmlns="http://www.w3.org/2000/svg">
<g id="localia logo 4">
<g id="Group">
<path id="Vector" d="M4.76318 55.1768H6.46964V63.0607H11.0563V64.7153H4.76318V55.1768Z" fill="white"/>
<path id="Vector_2" d="M12.2954 61.8492C12.2954 61.2755 12.4304 60.7634 12.6991 60.3115C12.9679 59.8595 13.3439 59.504 13.8259 59.2425C14.308 58.9822 14.8623 58.8521 15.4878 58.8521C16.1132 58.8521 16.6736 58.9822 17.1424 59.2425C17.6112 59.5028 17.9715 59.8595 18.2234 60.3115C18.4753 60.7634 18.6018 61.2755 18.6018 61.8492C18.6018 62.4228 18.4741 62.9242 18.2174 63.3809C17.9607 63.8364 17.6004 64.198 17.1364 64.4619C16.6712 64.727 16.1132 64.8596 15.4625 64.8596C14.8539 64.8596 14.3116 64.7403 13.8331 64.5017C13.3559 64.263 12.9799 63.9172 12.7064 63.4653C12.4328 63.0133 12.2954 62.4746 12.2954 61.8492ZM13.9633 61.8624C13.9633 62.1661 14.0284 62.4445 14.1585 62.6964C14.2887 62.9483 14.4646 63.1483 14.6864 63.2953C14.9081 63.4436 15.1576 63.5171 15.436 63.5171C15.8879 63.5171 16.2506 63.3592 16.5242 63.0411C16.7977 62.7241 16.9351 62.3312 16.9351 61.8612C16.9351 61.3912 16.799 60.9863 16.5242 60.6694C16.2506 60.3524 15.8879 60.1934 15.436 60.1934C15.1576 60.1934 14.9081 60.2669 14.6864 60.4151C14.4646 60.5633 14.2887 60.7622 14.1585 61.014C14.0284 61.2659 13.9633 61.5479 13.9633 61.8612V61.8624Z" fill="white"/>
<path id="Vector_3" d="M24.8044 64.2077C24.5525 64.4078 24.244 64.5657 23.8788 64.6838C23.5137 64.8007 23.1485 64.8597 22.7846 64.8597C22.1591 64.8597 21.6096 64.7428 21.136 64.5078C20.6624 64.2728 20.296 63.9342 20.0345 63.4919C19.7742 63.0484 19.644 62.5194 19.644 61.9023C19.644 61.2853 19.7826 60.7575 20.061 60.3188C20.3394 59.8802 20.7058 59.5439 21.1625 59.3089C21.6192 59.0739 22.1025 58.957 22.6159 58.957C23.1293 58.957 23.5414 59.0245 23.9054 59.1595C24.2705 59.2945 24.5826 59.4704 24.8441 59.6873L24.0367 60.7563C23.9066 60.6526 23.733 60.5502 23.5161 60.4502C23.2992 60.3502 23.0509 60.3007 22.7737 60.3007C22.4966 60.3007 22.2459 60.3706 22.0242 60.5092C21.8024 60.6478 21.6265 60.8394 21.4963 61.0829C21.3662 61.3263 21.3011 61.5999 21.3011 61.9036C21.3011 62.2072 21.3686 62.47 21.5035 62.7182C21.6385 62.9653 21.8289 63.1617 22.0772 63.3051C22.3242 63.4485 22.6086 63.5196 22.9304 63.5196C23.1389 63.5196 23.3317 63.4895 23.5101 63.428C23.6884 63.3678 23.8427 63.281 23.9728 63.1677L24.8068 64.2102L24.8044 64.2077Z" fill="white"/>
<path id="Vector_4" d="M28.61 64.8587C28.0882 64.8587 27.6158 64.7526 27.1892 64.5393C26.7638 64.326 26.4263 64.003 26.1793 63.568C25.9322 63.1341 25.8081 62.5822 25.8081 61.9134C25.8081 61.2795 25.9358 60.7335 26.1925 60.278C26.4492 59.8225 26.7903 59.4682 27.2157 59.2163C27.6411 58.9644 28.0978 58.8379 28.5835 58.8379C29.1306 58.8379 29.5584 58.9355 29.867 59.1307C30.1755 59.326 30.4213 59.5501 30.6033 59.802L30.525 60.0237L30.6816 59.0982H32.2194V64.7141H30.5647V63.4234L30.7081 63.8018C30.6816 63.8199 30.6214 63.8849 30.5262 63.997C30.431 64.1103 30.296 64.2332 30.1224 64.3682C29.9489 64.5032 29.7356 64.6177 29.4837 64.7141C29.2319 64.8093 28.9402 64.8575 28.61 64.8575V64.8587ZM29.0788 63.5162C29.444 63.5162 29.7525 63.4294 30.0043 63.2559C30.2562 63.0823 30.443 62.8341 30.5647 62.5135V61.2108C30.4599 60.9071 30.2695 60.6588 29.9911 60.4684C29.7127 60.278 29.3921 60.1816 29.027 60.1816C28.7486 60.1816 28.4931 60.2527 28.2581 60.3961C28.0231 60.5395 27.8363 60.7348 27.6977 60.983C27.5591 61.2301 27.4893 61.5157 27.4893 61.8362C27.4893 62.1568 27.5604 62.434 27.7038 62.6895C27.8472 62.9461 28.04 63.1474 28.2834 63.2956C28.5269 63.4439 28.792 63.5174 29.0788 63.5174V63.5162Z" fill="white"/>
<path id="Vector_5" d="M34.1475 54.4858H35.8021V64.7149H34.1475V54.4858Z" fill="white"/>
<path id="Vector_6" d="M37.7051 57.1055C37.7051 56.8621 37.8027 56.6608 37.9979 56.4993C38.1932 56.339 38.4041 56.2583 38.6294 56.2583C38.8548 56.2583 39.0608 56.339 39.2488 56.4993C39.4356 56.6596 39.5284 56.8621 39.5284 57.1055C39.5284 57.3489 39.4344 57.561 39.2488 57.7177C39.062 57.8744 38.856 57.9527 38.6294 57.9527C38.4028 57.9527 38.1932 57.8744 37.9979 57.7177C37.8027 57.561 37.7051 57.3574 37.7051 57.1055ZM37.7436 59.0988H39.3983V64.7146H37.7436V59.0988Z" fill="white"/>
<path id="Vector_7" d="M43.6994 64.8587C43.1776 64.8587 42.7051 64.7526 42.2785 64.5393C41.8531 64.326 41.5157 64.003 41.2686 63.568C41.0216 63.1341 40.8975 62.5822 40.8975 61.9134C40.8975 61.2795 41.0252 60.7335 41.2819 60.278C41.5386 59.8225 41.8796 59.4682 42.305 59.2163C42.7305 58.9644 43.1872 58.8379 43.6729 58.8379C44.22 58.8379 44.6478 58.9355 44.9563 59.1307C45.2648 59.326 45.5107 59.5501 45.6926 59.802L45.6143 60.0237L45.771 59.0982H47.3087V64.7141H45.6541V63.4234L45.7975 63.8018C45.771 63.8199 45.7107 63.8849 45.6155 63.997C45.5203 64.1103 45.3853 64.2332 45.2118 64.3682C45.0383 64.5032 44.825 64.6177 44.5731 64.7141C44.3212 64.8093 44.0296 64.8575 43.6994 64.8575V64.8587ZM44.1682 63.5162C44.5333 63.5162 44.8418 63.4294 45.0937 63.2559C45.3456 63.0823 45.5324 62.8341 45.6541 62.5135V61.2108C45.5492 60.9071 45.3588 60.6588 45.0804 60.4684C44.8021 60.278 44.4815 60.1816 44.1163 60.1816C43.838 60.1816 43.5825 60.2527 43.3475 60.3961C43.1125 60.5395 42.9257 60.7348 42.7871 60.983C42.6485 61.2301 42.5786 61.5157 42.5786 61.8362C42.5786 62.1568 42.6497 62.434 42.7931 62.6895C42.9365 62.9461 43.1293 63.1474 43.3728 63.2956C43.6162 63.4439 43.8813 63.5174 44.1682 63.5174V63.5162Z" fill="white"/>
</g>
<path id="Vector_8" fill-rule="evenodd" clip-rule="evenodd" d="M19.7614 26.7837C16.6787 27.2826 13.7804 25.2026 13.2839 22.1343C12.7874 19.0673 14.8819 16.1786 17.9634 15.6797C8.19707 16.0641 4.15389 26.1233 8.84904 32.8418C13.0947 32.1802 16.9679 30.0315 19.7614 26.7825V26.7837Z" fill="white"/>
<path id="Vector_9" fill-rule="evenodd" clip-rule="evenodd" d="M8.84914 32.8429C5.08193 26.2075 8.89614 17.1486 17.9635 15.6808C22.5225 14.9421 25.1086 19.207 24.5904 23.1935C26.8886 15.5892 22.978 6.20613 14.7747 7.20879C7.74405 9.23219 3.17664 16.2147 4.3685 23.5792C4.84814 26.545 6.56664 29.7265 8.84794 32.8441L8.84914 32.8429Z" fill="white"/>
<path id="Vector_10" d="M47.321 47.1974C46.622 46.5623 45.6206 46.2454 44.3142 46.2454H27.933V38.7134C26.5073 40.8452 25.0371 43.1543 23.8705 45.632C23.1474 47.1685 22.1074 50.097 23.0944 52.7326C23.6006 52.8338 24.1694 52.8856 24.8045 52.8856H44.3142C45.6386 52.8856 46.6449 52.5819 47.3342 51.9745C48.0236 51.3672 48.3682 50.573 48.3682 49.5932C48.3682 48.6135 48.0187 47.8337 47.321 47.1986V47.1974Z" fill="white"/>
<path id="Vector_11" d="M22.3307 53.3148C21.2485 50.7491 21.8487 47.7567 23.0345 45.238C24.2216 42.7181 25.7195 40.3561 27.2705 38.0423C32.003 30.9839 35.7293 20.9874 28.3503 12.7552C27.8695 12.1141 27.3404 11.5151 26.7668 10.9668C24.7735 9.06511 22.2861 7.75032 19.5686 7.18994C27.0789 11.2813 30.9112 27.765 15.5459 43.0532C16.4594 43.9329 17.3391 44.7656 18.1839 45.5393C19.0552 46.3371 19.8771 47.0891 20.6146 47.764C20.3351 49.2583 20.1916 50.7756 20.4086 52.2735C20.7026 54.3102 21.7571 56.3288 23.5503 57.3399C25.3435 58.351 27.9008 58.0702 29.1204 56.4131C26.6174 57.6327 23.4129 55.8829 22.3319 53.3172L22.3307 53.3148Z" fill="white"/>
<g id="Group_2">
<path id="Vector_12" d="M6.16053 67.5312H6.33769V68.1976C6.17258 68.3447 5.93758 68.4194 5.69536 68.4194C5.1639 68.4194 4.77344 68.0422 4.77344 67.53C4.77344 67.0178 5.16269 66.6406 5.69777 66.6406C5.96289 66.6406 6.19187 66.725 6.34733 66.8925L6.23284 67.0094C6.08582 66.8648 5.91107 66.8045 5.7062 66.8045C5.27477 66.8045 4.95662 67.1118 4.95662 67.5288C4.95662 67.9458 5.27356 68.2531 5.70379 68.2531C5.8713 68.2531 6.02556 68.2157 6.16053 68.1181V67.5288V67.5312Z" fill="white"/>
<path id="Vector_13" d="M8.84534 68.2458V68.4061H7.60889V66.6587H8.80798V66.819H7.79448V67.4408H8.69832V67.5987H7.79448V68.2482H8.84534V68.2458Z" fill="white"/>
<path id="Vector_14" d="M9.86523 67.5315C9.86523 67.0217 10.2545 66.6421 10.7847 66.6421C11.315 66.6421 11.7006 67.0193 11.7006 67.5315C11.7006 68.0436 11.309 68.4209 10.7847 68.4209C10.2605 68.4209 9.86523 68.0412 9.86523 67.5315ZM11.5163 67.5315C11.5163 67.1145 11.2041 66.8072 10.7847 66.8072C10.3654 66.8072 10.0484 67.1145 10.0484 67.5315C10.0484 67.9484 10.3629 68.2557 10.7847 68.2557C11.2065 68.2557 11.5163 67.9484 11.5163 67.5315Z" fill="white"/>
<path id="Vector_15" d="M12.6968 68.1931L12.7691 68.0509C12.8944 68.1738 13.1162 68.263 13.3463 68.263C13.6729 68.263 13.8163 68.1256 13.8163 67.9533C13.8163 67.4736 12.7402 67.7689 12.7402 67.1217C12.7402 66.865 12.9402 66.6421 13.3849 66.6421C13.5825 66.6421 13.7874 66.6999 13.9272 66.7963L13.8645 66.9434C13.7151 66.8458 13.5404 66.7988 13.3849 66.7988C13.0655 66.7988 12.9233 66.941 12.9233 67.1157C12.9233 67.5953 13.9995 67.3061 13.9995 67.9424C13.9995 68.1991 13.7946 68.4196 13.3475 68.4196C13.0848 68.4196 12.8281 68.3268 12.698 68.1919L12.6968 68.1931Z" fill="white"/>
<path id="Vector_16" d="M16.5189 67.2562C16.5189 67.6286 16.249 67.8527 15.8043 67.8527H15.3343V68.4047H15.1499V66.6572H15.8043C16.249 66.6572 16.5189 66.8826 16.5189 67.2562ZM16.3345 67.2562C16.3345 66.9766 16.1502 66.8163 15.8007 66.8163H15.3367V67.69H15.8007C16.1502 67.69 16.3345 67.5297 16.3345 67.255V67.2562Z" fill="white"/>
<path id="Vector_17" d="M18.677 67.9385H17.7033L17.4936 68.4061H17.3008L18.0998 66.6587H18.2818L19.0807 68.4061H18.8855L18.6758 67.9385H18.677ZM18.6095 67.7891L18.1902 66.8503L17.7708 67.7891H18.6095Z" fill="white"/>
<path id="Vector_18" d="M20.3739 66.8165H19.7593V66.6562H21.1729V66.8165H20.5583V68.4049H20.3739V66.8165Z" fill="white"/>
<path id="Vector_19" d="M22.2168 66.6572H22.4012V68.4047H22.2168V66.6572Z" fill="white"/>
<path id="Vector_20" d="M24.8167 67.9385H23.8429L23.6332 68.4061H23.4404L24.2394 66.6587H24.4214L25.2204 68.4061H25.0252L24.8155 67.9385H24.8167ZM24.7492 67.7891L24.3298 66.8503L23.9104 67.7891H24.7492Z" fill="white"/>
<path id="Vector_21" d="M26.2605 66.6572H26.4449V68.2456H27.4234V68.4059H26.2593V66.6584L26.2605 66.6572Z" fill="white"/>
<path id="Vector_22" d="M29.7173 68.1931L29.7896 68.0509C29.9149 68.1738 30.1367 68.263 30.3668 68.263C30.6934 68.263 30.8368 68.1256 30.8368 67.9533C30.8368 67.4736 29.7607 67.7689 29.7607 67.1217C29.7607 66.865 29.9607 66.6421 30.4054 66.6421C30.6031 66.6421 30.8079 66.6999 30.9477 66.7963L30.885 66.9434C30.7356 66.8458 30.5609 66.7988 30.4054 66.7988C30.0861 66.7988 29.9438 66.941 29.9438 67.1157C29.9438 67.5953 31.02 67.3061 31.02 67.9424C31.02 68.1991 30.8152 68.4196 30.3681 68.4196C30.1053 68.4196 29.8486 68.3268 29.7185 68.1919L29.7173 68.1931Z" fill="white"/>
<path id="Vector_23" d="M33.4059 68.2458V68.4061H32.1694V66.6587H33.3685V66.819H32.355V67.4408H33.2589V67.5987H32.355V68.2482H33.4059V68.2458Z" fill="white"/>
<path id="Vector_24" d="M35.7846 68.4047L35.3845 67.8431C35.3399 67.8479 35.2941 67.8503 35.2447 67.8503H34.7747V68.4047H34.5903V66.6572H35.2447C35.6894 66.6572 35.9594 66.8826 35.9594 67.2562C35.9594 67.5309 35.8147 67.7238 35.5593 67.8057L35.9859 68.4047H35.7834H35.7846ZM35.775 67.2562C35.775 66.9766 35.5906 66.8163 35.2411 66.8163H34.7771V67.6924H35.2411C35.5906 67.6924 35.775 67.5297 35.775 67.255V67.2562Z" fill="white"/>
<path id="Vector_25" d="M38.599 66.6577L37.8253 68.4051H37.6433L36.8696 66.6577H37.0697L37.7385 68.1762L38.4122 66.6577H38.599Z" fill="white"/>
<path id="Vector_26" d="M39.6016 66.6572H39.7859V68.4047H39.6016V66.6572Z" fill="white"/>
<path id="Vector_27" d="M40.9502 67.5315C40.9502 67.0193 41.3395 66.6421 41.8673 66.6421C42.1216 66.6421 42.3518 66.7264 42.506 66.8964L42.3891 67.0133C42.2469 66.8687 42.0722 66.806 41.8721 66.806C41.4503 66.806 41.1334 67.1157 41.1334 67.5303C41.1334 67.9448 41.4503 68.2545 41.8721 68.2545C42.0722 68.2545 42.2469 68.1919 42.3891 68.0449L42.506 68.1617C42.3505 68.3317 42.1216 68.4184 41.8637 68.4184C41.3395 68.4184 40.9502 68.0412 40.9502 67.5291V67.5315Z" fill="white"/>
<path id="Vector_28" d="M44.8859 68.2458V68.4061H43.6494V66.6587H44.8485V66.819H43.835V67.4408H44.7388V67.5987H43.835V68.2482H44.8859V68.2458Z" fill="white"/>
<path id="Vector_29" d="M45.9028 68.1931L45.9751 68.0509C46.1005 68.1738 46.3222 68.263 46.5524 68.263C46.879 68.263 47.0224 68.1256 47.0224 67.9533C47.0224 67.4736 45.9462 67.7689 45.9462 67.1217C45.9462 66.865 46.1463 66.6421 46.591 66.6421C46.7886 66.6421 46.9935 66.6999 47.1333 66.7963L47.0706 66.9434C46.9212 66.8458 46.7464 66.7988 46.591 66.7988C46.2716 66.7988 46.1294 66.941 46.1294 67.1157C46.1294 67.5953 47.2056 67.3061 47.2056 67.9424C47.2056 68.1991 47.0007 68.4196 46.5536 68.4196C46.2909 68.4196 46.0342 68.3268 45.904 68.1919L45.9028 68.1931Z" fill="white"/>
</g>
</g>
</svg>
